# xmcd CD database file
#
# Track frame offsets:
#	150
#	14432
#	29997
#	45955
#	70625
#	93415
#	106017
#	123537
#	143262
#	163290
#
# Disc length: 2453 seconds
#
# Revision: 0
# Processed by: cddbd v1.5.1PL0 Copyright (c) Steve Scherf et al.
# Submitted via: CDex 1.51
#
DISCID=7d09930a
DTITLE=Southbound - Make A Move
DYEAR=2001
DGENRE=Country
TTITLE0=Full Deck Of Cards
TTITLE1=Seven Shades of Lipstick
TTITLE2=Cheatin.com
TTITLE3=It's Love
TTITLE4=Thousand Miles Away
TTITLE5=One Heart Town
TTITLE6=Make A Move
TTITLE7=Repo Man
TTITLE8=Tried As A Fool
TTITLE9=I Don't Want To Talk About It
EXTD=YEAR: 2001
EXTT0=
EXTT1=
EXTT2=
EXTT3=
EXTT4=
EXTT5=
EXTT6=
EXTT7=
EXTT8=
EXTT9=
PLAYORDER=
